<?xml version="1.0" ?><!DOCTYPE svg  PUBLIC '-//W3C//DTD SVG 1.1//EN'  'http://www.w3.org/Graphics/SVG/1.1/DTD/svg11.dtd'><svg height="100%" style="fill-rule:evenodd;clip-rule:evenodd;stroke-linejoin:round;stroke-miterlimit:1.41421;" version="1.1" viewBox="0 0 128 128" width="100%" xml:space="preserve" xmlns="http://www.w3.org/2000/svg" xmlns:serif="http://www.serif.com/" xmlns:xlink="http://www.w3.org/1999/xlink"><rect height="128" id="Search" style="fill:none;" width="128" x="0.211" y="0"/><path d="M75.941,79.528c-11.617,10.144 -28.988,13.34 -43.601,7.365c-17.62,-7.204 -28.844,-27.468 -25.473,-46.322c3.373,-18.867 20.915,-34.128 40.531,-34.563c0.361,-0.006 0.722,-0.008 1.084,-0.007c19.279,0.183 37.454,15.06 41.025,34.312c2.394,12.904 -1.734,26.845 -10.689,36.433l34.787,33.82c0.746,0.788 0.617,1.05 0.605,1.489c-0.042,1.525 -2.11,2.527 -3.394,1.379l-34.875,-33.906Zm-27.976,-69.527c-17.208,0.163 -33.355,13.173 -36.934,30.111c-2.634,12.469 1.515,26.166 10.639,35.073c10.478,10.228 27.063,13.662 40.897,8.005c16.003,-6.542 26.182,-25.034 23.007,-42.148c-3.147,-16.967 -18.86,-30.64 -36.627,-31.035c-0.328,-0.005 -0.655,-0.007 -0.982,-0.006Z" style="fill-rule:nonzero;"/></svg>